<?xml version="1.0" encoding="UTF-8" standalone="no"?>
<!-- Generator: Adobe Illustrator 19.2.0, SVG Export Plug-In . SVG Version: 6.00 Build 0)  -->

<svg
   xmlns:dc="http://purl.org/dc/elements/1.1/"
   xmlns:cc="http://creativecommons.org/ns#"
   xmlns:rdf="http://www.w3.org/1999/02/22-rdf-syntax-ns#"
   xmlns:svg="http://www.w3.org/2000/svg"
   xmlns="http://www.w3.org/2000/svg"
   xmlns:sodipodi="http://sodipodi.sourceforge.net/DTD/sodipodi-0.dtd"
   xmlns:inkscape="http://www.inkscape.org/namespaces/inkscape"
   version="1.1"
   id="Layer_1"
   x="0px"
   y="0px"
   viewBox="0 0 24 24"
   style="enable-background:new 0 0 24 24;"
   xml:space="preserve"
   inkscape:version="0.48.5 r10040"
   width="100%"
   height="100%"
   sodipodi:docname="translation-dark-grey.svg"><metadata
     id="metadata15"><rdf:RDF><cc:Work
         rdf:about=""><dc:format>image/svg+xml</dc:format><dc:type
           rdf:resource="http://purl.org/dc/dcmitype/StillImage" /><dc:title></dc:title></cc:Work></rdf:RDF></metadata><defs
     id="defs13" /><sodipodi:namedview
     pagecolor="#ffffff"
     bordercolor="#666666"
     borderopacity="1"
     objecttolerance="10"
     gridtolerance="10"
     guidetolerance="10"
     inkscape:pageopacity="0"
     inkscape:pageshadow="2"
     inkscape:window-width="934"
     inkscape:window-height="608"
     id="namedview11"
     showgrid="false"
     inkscape:zoom="9.8333333"
     inkscape:cx="11.898305"
     inkscape:cy="11.033898"
     inkscape:window-x="0"
     inkscape:window-y="0"
     inkscape:window-maximized="0"
     inkscape:current-layer="Layer_1" /><path
     style="fill:#333333;fill-opacity:1"
     d="M 5.5625,4.5 6.5,6.40625 l -4.9375,0 0,0.09375 0,2 1.59375,0 c 0.6,1.8 1.40625,3.20625 2.40625,4.40625 -1.1,0.7 -4.3125,1.78125 -4.3125,1.78125 L 2.5625,16.5 c 0,0 3.4875,-1.3875 4.6875,-2.1875 1,0.7 2.31875,1.1875 3.71875,1.6875 l 0.59375,-2 c -1,-0.3 -1.9875,-0.6875 -2.6875,-1.1875 1.1,-1.1 1.9,-2.50625 2.5,-4.40625 l 2.1875,0 0.5,-2 -5.5625,0 L 7.5625,4.5 l -2,0 z m 10,2 -4.1875,13 2.1875,0 0.8125,-3 5.28125,0 0.90625,3 2.1875,0 -4.1875,-13 -3,0 z m -10.1875,2 3.78125,0 c -0.4,1.3 -0.90625,2 -1.90625,3 -1.1,-1 -1.475,-1.7 -1.875,-3 z m 11.6875,0 2,6 -4,0 2,-6 z"
     id="path3"
     inkscape:connector-curvature="0" /></svg>